<svg width="120" height="120" viewBox="0 0 120 120" fill="none" xmlns="http://www.w3.org/2000/svg">
<path d="M14.1038 51.5482C14.1038 51.5482 20.3197 54.7832 23.4999 55.8125C26.6801 56.9889 13.5256 53.3128 13.5256 53.3128" fill="url(#paint0_linear_1227:30744)"/>
<path d="M39.5455 61.6944C39.5455 61.6944 33.3296 58.4594 30.1494 57.4301C26.9692 56.2537 40.1237 59.9298 40.1237 59.9298" fill="url(#paint1_linear_1227:30744)"/>
<path d="M11.3572 33.7557C11.3572 33.7557 16.9949 29.6384 19.3078 27.2857C21.6207 24.933 12.6582 35.0791 12.6582 35.0791" fill="url(#paint2_linear_1227:30744)"/>
<path d="M36.799 14.0516C36.799 14.0516 31.0168 17.8748 28.4148 20.0804C25.9573 22.2861 35.498 12.5811 35.498 12.5811" fill="url(#paint3_linear_1227:30744)"/>
<path d="M56.0248 16.5513C56.0248 16.5513 55.3021 23.4625 55.4466 26.6975C55.5912 29.9325 54.1456 16.5513 54.1456 16.5513" fill="url(#paint4_linear_1227:30744)"/>
<path d="M54.5793 43.1666C54.5793 43.1666 55.7357 36.2555 55.7357 33.0205C55.8803 29.7855 56.4585 43.1666 56.4585 43.1666" fill="url(#paint5_linear_1227:30744)"/>
<path d="M77.1299 53.1657C77.1299 53.1657 83.4903 50.3719 86.3814 48.7544C89.2725 47.1369 77.9972 54.7832 77.9972 54.7832" fill="url(#paint6_linear_1227:30744)"/>
<path d="M101.415 43.0196C101.415 43.0196 94.7656 45.2253 91.8745 46.6957C88.8389 48.1662 100.692 41.255 100.692 41.255" fill="url(#paint7_linear_1227:30744)"/>
<path d="M72.0705 7.87566C72.0705 7.87566 77.7081 11.9929 80.5992 13.6104C83.4903 15.2279 71.2031 9.49316 71.2031 9.49316" fill="url(#paint8_linear_1227:30744)"/>
<path d="M100.259 25.9623C100.259 25.9623 94.6211 21.845 91.73 20.2275C88.8389 18.61 101.126 24.3448 101.126 24.3448" fill="url(#paint9_linear_1227:30744)"/>
<path d="M115.003 56.8419C115.003 56.8419 112.835 63.4589 112.257 66.6939C111.679 69.9289 113.124 56.5478 113.124 56.5478" fill="url(#paint10_linear_1227:30744)"/>
<path d="M106.475 86.8392C106.475 86.8392 108.643 80.2221 109.221 76.9871C109.799 73.7521 108.354 87.1333 108.354 87.1333" fill="url(#paint11_linear_1227:30744)"/>
<path d="M5.57502 65.8117C5.57502 65.8117 7.45424 72.5758 8.61068 75.5167C9.91168 78.6046 3.6958 66.5469 3.6958 66.5469" fill="url(#paint12_linear_1227:30744)"/>
<path d="M19.3078 97.7206C19.3078 97.7206 17.1394 91.1035 15.6939 88.1626C14.2483 85.2217 21.0424 96.9853 21.0424 96.9853" fill="url(#paint13_linear_1227:30744)"/>
<path d="M35.0643 101.397C35.0643 101.397 38.5337 95.3678 39.8347 92.2799C41.1357 89.1919 36.799 102.132 36.799 102.132" fill="url(#paint14_linear_1227:30744)"/>
<path d="M47.6406 76.6931C47.6406 76.6931 44.1713 82.7219 42.8703 85.8099C41.5693 88.8978 45.906 75.9578 45.906 75.9578" fill="url(#paint15_linear_1227:30744)"/>
<path d="M49.0862 112.572C49.0862 112.572 56.0248 113.013 59.3496 112.866C62.6744 112.719 49.2307 114.484 49.2307 114.484" fill="url(#paint16_linear_1227:30744)"/>
<path d="M84.3576 109.337C84.3576 109.337 77.419 109.337 74.0942 109.778C70.7694 110.219 84.2131 107.426 84.2131 107.426" fill="url(#paint17_linear_1227:30744)"/>
<path d="M89.8507 95.809C89.8507 95.809 86.526 89.6331 84.5022 86.9862C82.623 84.3394 91.2963 94.6326 91.2963 94.6326" fill="url(#paint18_linear_1227:30744)"/>
<path d="M74.5279 72.8698C74.5279 72.8698 77.8527 79.0458 79.8764 81.6926C81.7557 84.3394 73.0823 74.0462 73.0823 74.0462" fill="url(#paint19_linear_1227:30744)"/>
<path d="M35.9317 60.371C35.9317 60.371 35.6425 58.4594 36.799 56.9889C37.9554 55.5185 51.8327 42.4314 53.712 41.8432C55.7357 41.255 56.314 40.8139 58.3377 41.8432C60.3615 42.8725 77.2745 51.4012 77.7081 51.9894C78.1418 52.5776 78.8646 52.4305 79.0091 54.048C79.1537 55.6655 76.8408 73.7521 75.6844 75.2226C74.5279 76.6931 73.0824 76.9871 73.0824 76.9871C73.0824 76.9871 62.6744 80.8103 52.7001 80.6633C42.7258 80.5162 43.8822 76.9871 40.702 70.6642C37.5218 64.4883 35.9317 60.371 35.9317 60.371Z" fill="url(#paint20_linear_1227:30744)"/>
<path d="M13.381 32.8734C13.381 32.8734 12.08 41.255 13.5256 47.1369C14.9711 53.0187 15.1157 53.0187 15.1157 53.0187C15.1157 53.0187 12.08 55.3714 10.2008 58.0182C8.46614 60.6651 6.58692 64.6353 6.15325 66.841C5.71959 69.0467 5.43048 69.1937 5.43048 69.1937C5.43048 69.1937 3.26215 66.841 2.39482 64.4883C1.67204 61.9885 0.660152 53.0187 2.68393 46.1075C4.7077 39.3434 6.29781 34.785 7.88792 33.1675C9.47803 31.55 12.5137 30.3737 13.0919 30.2266C13.8147 30.0796 13.8147 30.0796 13.8147 30.0796L13.381 32.8734Z" fill="url(#paint21_linear_1227:30744)"/>
<path d="M37.3772 9.05203C37.3772 9.05203 46.0505 4.34657 53.4228 3.90543C60.7951 3.46429 62.9635 2.14088 69.9021 3.90543L73.3715 9.49317L56.4585 17.7277C56.4585 17.7277 55.302 18.9041 52.2664 18.0218L35.3534 14.4927C35.3534 14.4927 34.4861 14.0516 35.0643 12.8752C35.498 11.6988 37.3772 9.05203 37.3772 9.05203Z" fill="url(#paint22_linear_1227:30744)"/>
<path d="M99.2469 43.3137C99.2469 43.3137 112.401 52.4305 113.847 59.0476L115.871 55.2244C115.871 55.2244 116.738 49.9307 114.281 42.1373C111.823 34.3439 107.631 25.3741 106.186 24.1977C104.74 23.0214 98.3796 23.7566 98.3796 23.7566L99.2469 43.3137Z" fill="url(#paint23_linear_1227:30744)"/>
<path d="M80.7438 109.19C80.7438 109.19 86.8151 102.132 88.2607 98.7499C89.7062 95.3679 89.5617 93.7504 89.5617 93.7504C89.5617 93.7504 95.1993 92.4269 99.1023 90.5154C103.005 88.6038 106.475 85.9569 107.197 85.0747C108.065 84.0454 108.065 84.0453 108.065 84.0453C108.065 84.0453 108.643 89.486 108.643 90.5154C108.643 91.6917 105.318 96.3972 98.3796 102.72C91.4409 109.19 90.429 109.631 88.2607 109.778C86.0924 110.072 80.7438 109.19 80.7438 109.19Z" fill="url(#paint24_linear_1227:30744)"/>
<path d="M36.9435 100.22C36.9435 100.22 32.0287 101.25 26.9692 99.044C21.9098 96.9854 19.1632 94.7797 18.8741 94.1915C18.585 93.6033 17.8622 99.191 17.8622 99.191C17.8622 99.191 21.6207 105.073 30.4385 110.072C39.2564 115.072 39.8346 116.248 42.003 116.395C44.1713 116.542 51.5436 113.454 51.5436 113.454L36.9435 100.22Z" fill="url(#paint25_linear_1227:30744)"/>
<path d="M7.16514 88.4567C7.16514 88.4567 14.2484 101.985 23.789 107.867C33.3297 113.749 39.2564 117.572 47.4961 118.895C55.8803 120.219 65.7101 120.807 75.2507 118.013C84.7914 115.219 91.2963 112.425 97.8013 106.69C104.306 101.103 108.932 98.1617 113.847 86.9863C118.762 75.6637 120.93 68.7526 119.629 56.8419C118.328 44.9312 118.039 39.3434 112.546 31.1089C107.053 23.0214 102.427 16.4043 94.332 11.4048C86.3815 6.40521 84.2131 4.19953 76.8408 2.58202C69.4685 0.964521 61.3734 -1.53526 47.9297 1.25861C34.3415 4.05248 25.8128 9.05203 21.187 13.7575C16.5612 18.463 7.88792 27.2857 3.98493 37.5789C-0.0626227 47.8721 -0.351733 58.3123 0.226488 65.5176C0.804709 72.7228 2.39482 77.4283 2.39482 77.4283C2.39482 77.4283 -1.07451 44.6371 8.75525 32.7264C18.585 20.8157 30.5831 7.58158 43.1594 5.66998C55.7357 3.75839 70.3358 0.96452 81.9002 8.46385C93.6092 15.9632 97.9459 15.9632 106.908 30.6678C115.871 45.3723 119.774 54.4892 113.702 76.1049C107.487 97.7206 103.294 97.4265 94.0429 104.632C84.7914 111.837 78.5755 117.131 57.7595 117.131C36.799 117.131 22.6326 104.632 15.5494 97.1324C8.46614 89.7801 7.16514 88.4567 7.16514 88.4567Z" fill="url(#paint26_linear_1227:30744)"/>
<defs>
<linearGradient id="paint0_linear_1227:30744" x1="13.5256" y1="51.5482" x2="23.9958" y2="51.5482" gradientUnits="userSpaceOnUse">
<stop stop-color="#8F5E25"/>
<stop offset="0.5" stop-color="#FBF4A1"/>
<stop offset="1" stop-color="#8F5E25"/>
</linearGradient>
<linearGradient id="paint1_linear_1227:30744" x1="29.6534" y1="57.1979" x2="40.1237" y2="57.1979" gradientUnits="userSpaceOnUse">
<stop stop-color="#8F5E25"/>
<stop offset="0.5" stop-color="#FBF4A1"/>
<stop offset="1" stop-color="#8F5E25"/>
</linearGradient>
<linearGradient id="paint2_linear_1227:30744" x1="11.3572" y1="26.9317" x2="19.6892" y2="26.9317" gradientUnits="userSpaceOnUse">
<stop stop-color="#8F5E25"/>
<stop offset="0.5" stop-color="#FBF4A1"/>
<stop offset="1" stop-color="#8F5E25"/>
</linearGradient>
<linearGradient id="paint3_linear_1227:30744" x1="28.0102" y1="12.5811" x2="36.799" y2="12.5811" gradientUnits="userSpaceOnUse">
<stop stop-color="#8F5E25"/>
<stop offset="0.5" stop-color="#FBF4A1"/>
<stop offset="1" stop-color="#8F5E25"/>
</linearGradient>
<linearGradient id="paint4_linear_1227:30744" x1="54.1456" y1="16.5513" x2="56.0248" y2="16.5513" gradientUnits="userSpaceOnUse">
<stop stop-color="#8F5E25"/>
<stop offset="0.5" stop-color="#FBF4A1"/>
<stop offset="1" stop-color="#8F5E25"/>
</linearGradient>
<linearGradient id="paint5_linear_1227:30744" x1="54.5793" y1="32.516" x2="56.4585" y2="32.516" gradientUnits="userSpaceOnUse">
<stop stop-color="#8F5E25"/>
<stop offset="0.5" stop-color="#FBF4A1"/>
<stop offset="1" stop-color="#8F5E25"/>
</linearGradient>
<linearGradient id="paint6_linear_1227:30744" x1="77.1299" y1="48.5297" x2="86.8556" y2="48.5297" gradientUnits="userSpaceOnUse">
<stop stop-color="#8F5E25"/>
<stop offset="0.5" stop-color="#FBF4A1"/>
<stop offset="1" stop-color="#8F5E25"/>
</linearGradient>
<linearGradient id="paint7_linear_1227:30744" x1="91.3772" y1="41.255" x2="101.415" y2="41.255" gradientUnits="userSpaceOnUse">
<stop stop-color="#8F5E25"/>
<stop offset="0.5" stop-color="#FBF4A1"/>
<stop offset="1" stop-color="#8F5E25"/>
</linearGradient>
<linearGradient id="paint8_linear_1227:30744" x1="71.2031" y1="7.87566" x2="81.0397" y2="7.87566" gradientUnits="userSpaceOnUse">
<stop stop-color="#8F5E25"/>
<stop offset="0.5" stop-color="#FBF4A1"/>
<stop offset="1" stop-color="#8F5E25"/>
</linearGradient>
<linearGradient id="paint9_linear_1227:30744" x1="91.2895" y1="19.94" x2="101.126" y2="19.94" gradientUnits="userSpaceOnUse">
<stop stop-color="#8F5E25"/>
<stop offset="0.5" stop-color="#FBF4A1"/>
<stop offset="1" stop-color="#8F5E25"/>
</linearGradient>
<linearGradient id="paint10_linear_1227:30744" x1="112.12" y1="56.5478" x2="115.003" y2="56.5478" gradientUnits="userSpaceOnUse">
<stop stop-color="#8F5E25"/>
<stop offset="0.5" stop-color="#FBF4A1"/>
<stop offset="1" stop-color="#8F5E25"/>
</linearGradient>
<linearGradient id="paint11_linear_1227:30744" x1="106.475" y1="76.4826" x2="109.358" y2="76.4826" gradientUnits="userSpaceOnUse">
<stop stop-color="#8F5E25"/>
<stop offset="0.5" stop-color="#FBF4A1"/>
<stop offset="1" stop-color="#8F5E25"/>
</linearGradient>
<linearGradient id="paint12_linear_1227:30744" x1="3.6958" y1="65.8117" x2="8.78973" y2="65.8117" gradientUnits="userSpaceOnUse">
<stop stop-color="#8F5E25"/>
<stop offset="0.5" stop-color="#FBF4A1"/>
<stop offset="1" stop-color="#8F5E25"/>
</linearGradient>
<linearGradient id="paint13_linear_1227:30744" x1="15.4921" y1="87.6906" x2="21.0424" y2="87.6906" gradientUnits="userSpaceOnUse">
<stop stop-color="#8F5E25"/>
<stop offset="0.5" stop-color="#FBF4A1"/>
<stop offset="1" stop-color="#8F5E25"/>
</linearGradient>
<linearGradient id="paint14_linear_1227:30744" x1="35.0643" y1="91.8036" x2="40.0781" y2="91.8036" gradientUnits="userSpaceOnUse">
<stop stop-color="#8F5E25"/>
<stop offset="0.5" stop-color="#FBF4A1"/>
<stop offset="1" stop-color="#8F5E25"/>
</linearGradient>
<linearGradient id="paint15_linear_1227:30744" x1="42.6268" y1="75.9578" x2="47.6406" y2="75.9578" gradientUnits="userSpaceOnUse">
<stop stop-color="#8F5E25"/>
<stop offset="0.5" stop-color="#FBF4A1"/>
<stop offset="1" stop-color="#8F5E25"/>
</linearGradient>
<linearGradient id="paint16_linear_1227:30744" x1="49.0862" y1="112.572" x2="59.8783" y2="112.572" gradientUnits="userSpaceOnUse">
<stop stop-color="#8F5E25"/>
<stop offset="0.5" stop-color="#FBF4A1"/>
<stop offset="1" stop-color="#8F5E25"/>
</linearGradient>
<linearGradient id="paint17_linear_1227:30744" x1="73.5655" y1="107.426" x2="84.3576" y2="107.426" gradientUnits="userSpaceOnUse">
<stop stop-color="#8F5E25"/>
<stop offset="0.5" stop-color="#FBF4A1"/>
<stop offset="1" stop-color="#8F5E25"/>
</linearGradient>
<linearGradient id="paint18_linear_1227:30744" x1="84.2357" y1="86.5511" x2="91.2963" y2="86.5511" gradientUnits="userSpaceOnUse">
<stop stop-color="#8F5E25"/>
<stop offset="0.5" stop-color="#FBF4A1"/>
<stop offset="1" stop-color="#8F5E25"/>
</linearGradient>
<linearGradient id="paint19_linear_1227:30744" x1="73.0823" y1="72.8698" x2="80.143" y2="72.8698" gradientUnits="userSpaceOnUse">
<stop stop-color="#8F5E25"/>
<stop offset="0.5" stop-color="#FBF4A1"/>
<stop offset="1" stop-color="#8F5E25"/>
</linearGradient>
<linearGradient id="paint20_linear_1227:30744" x1="35.8995" y1="41.2258" x2="79.0156" y2="41.2258" gradientUnits="userSpaceOnUse">
<stop stop-color="#8F5E25"/>
<stop offset="0.5" stop-color="#FBF4A1"/>
<stop offset="1" stop-color="#8F5E25"/>
</linearGradient>
<linearGradient id="paint21_linear_1227:30744" x1="1.49243" y1="30.0796" x2="15.1157" y2="30.0796" gradientUnits="userSpaceOnUse">
<stop stop-color="#8F5E25"/>
<stop offset="0.5" stop-color="#FBF4A1"/>
<stop offset="1" stop-color="#8F5E25"/>
</linearGradient>
<linearGradient id="paint22_linear_1227:30744" x1="34.8655" y1="3.01366" x2="73.3715" y2="3.01366" gradientUnits="userSpaceOnUse">
<stop stop-color="#8F5E25"/>
<stop offset="0.5" stop-color="#FBF4A1"/>
<stop offset="1" stop-color="#8F5E25"/>
</linearGradient>
<linearGradient id="paint23_linear_1227:30744" x1="98.3796" y1="23.5297" x2="116.019" y2="23.5297" gradientUnits="userSpaceOnUse">
<stop stop-color="#8F5E25"/>
<stop offset="0.5" stop-color="#FBF4A1"/>
<stop offset="1" stop-color="#8F5E25"/>
</linearGradient>
<linearGradient id="paint24_linear_1227:30744" x1="80.7438" y1="84.0453" x2="108.643" y2="84.0453" gradientUnits="userSpaceOnUse">
<stop stop-color="#8F5E25"/>
<stop offset="0.5" stop-color="#FBF4A1"/>
<stop offset="1" stop-color="#8F5E25"/>
</linearGradient>
<linearGradient id="paint25_linear_1227:30744" x1="17.8622" y1="94.1481" x2="51.5436" y2="94.1481" gradientUnits="userSpaceOnUse">
<stop stop-color="#8F5E25"/>
<stop offset="0.5" stop-color="#FBF4A1"/>
<stop offset="1" stop-color="#8F5E25"/>
</linearGradient>
<linearGradient id="paint26_linear_1227:30744" x1="0" y1="0" x2="120" y2="0" gradientUnits="userSpaceOnUse">
<stop stop-color="#8F5E25"/>
<stop offset="0.5" stop-color="#FBF4A1"/>
<stop offset="1" stop-color="#8F5E25"/>
</linearGradient>
</defs>
</svg>
